<?xml version="1.0" encoding="UTF-8" standalone="no"?>
<!-- Created with Inkscape (http://www.inkscape.org/) -->

<svg
   width="193.63011mm"
   height="102.22694mm"
   viewBox="0 0 193.63011 102.22694"
   version="1.1"
   id="svg1"
   xml:space="preserve"
   inkscape:version="1.3 (0e150ed6c4, 2023-07-21)"
   sodipodi:docname="logo.svg"
   xmlns:inkscape="http://www.inkscape.org/namespaces/inkscape"
   xmlns:sodipodi="http://sodipodi.sourceforge.net/DTD/sodipodi-0.dtd"
   xmlns="http://www.w3.org/2000/svg"
   xmlns:svg="http://www.w3.org/2000/svg"><sodipodi:namedview
     id="namedview1"
     pagecolor="#ffffff"
     bordercolor="#000000"
     borderopacity="0.25"
     inkscape:showpageshadow="2"
     inkscape:pageopacity="0.0"
     inkscape:pagecheckerboard="0"
     inkscape:deskcolor="#d1d1d1"
     inkscape:document-units="mm"
     inkscape:zoom="1"
     inkscape:cx="191.5"
     inkscape:cy="123.5"
     inkscape:window-width="1920"
     inkscape:window-height="1009"
     inkscape:window-x="-8"
     inkscape:window-y="-8"
     inkscape:window-maximized="1"
     inkscape:current-layer="layer2" /><defs
     id="defs1"><mask
       maskUnits="userSpaceOnUse"
       id="mask34"><g
         id="use34"
         transform="matrix(1.0491636,0,0,1.0491636,0.88300261,-3.1488126)"><rect
           style="fill:#35605a;fill-opacity:1;stroke-width:0.144324"
           id="rect182"
           width="3.1051662"
           height="4.1304989"
           x="21.488926"
           y="62.380642" /><path
           d="M 23.017904,48.196941 14.540759,62.605448 H 31.72524 Z"
           style="fill:#35605a;stroke-width:0.218971"
           id="path183" /><path
           d="M 23.037596,44.677308 15.700288,57.148447 H 30.574143 Z"
           style="fill:#35605a;stroke-width:0.189528"
           id="path184" /><path
           d="m 23.032034,42.210443 -5.399585,9.177613 h 10.945792 z"
           style="fill:#35605a;stroke-width:0.139475"
           id="path185" /></g></mask><filter
       style="color-interpolation-filters:sRGB"
       inkscape:label="Blur"
       id="filter45"
       x="-0.053038791"
       y="-0.035231967"
       width="1.1062315"
       height="1.0678303"><feGaussianBlur
         stdDeviation="0.3 0.3"
         result="blur"
         id="feGaussianBlur45" /></filter></defs><g
     inkscape:groupmode="layer"
     id="layer2"
     inkscape:label="Trees"
     transform="matrix(3.2652387,0,0,3.2652387,-24.706308,-125.06704)"><g
       id="g268"><path
         id="path268"
         style="fill:#35605a;stroke-width:0.139475"
         d="m 22.095292,38.302572 -3.770312,6.408394 0.728637,1.238167 0.900721,1.531173 0.12454,0.211873 3.263883,5.548499 0.304891,0.518315 3.109371,-5.284949 0.584977,-0.993738 0.147278,-0.251147 z m 14.309204,0.558105 -4.46226,7.584033 c 0.220162,-0.0881 0.441743,-0.173655 0.670244,-0.244429 0.280806,-0.08697 0.567836,-0.16068 0.859895,-0.220142 0.292061,-0.05946 0.589067,-0.104922 0.890902,-0.135392 0.301835,-0.03047 0.60816,-0.04599 0.91829,-0.04599 h 5.315955 L 39.806873,44.490308 39.042578,43.226302 38.76766,42.771033 38.029203,41.549402 Z m 11.746053,0.289388 -3.911906,6.64869 h 7.930266 l -0.760677,-1.257804 -0.339515,-0.56224 -0.912089,-1.508435 z m -32.093131,3.964616 -5.399671,9.177734 h 1.456759 L 8.7255656,58.052787 H 10.776603 L 7.5664632,63.509302 H 14.51436 v 3.905705 h 3.105236 v -3.905705 h 3.799768 l 1.35444,-2.302185 h -0.481108 l 0.526583,-0.894519 -0.01912,-0.03152 h -1.532723 l 0.756026,-1.285193 0.555005,-0.943095 0.503845,-0.856278 -2.390552,-3.955831 -0.573091,-0.948263 h 1.48518 L 19.459794,48.744312 18.6955,47.480306 18.420581,47.025037 17.682125,45.803406 Z m 13.368693,2.195215 -0.417546,0.710034 -1.842265,3.131075 -3.115055,5.294251 -0.02481,0.04237 h 0.04961 0.713135 0.694014 l -0.564307,0.959115 -0.139009,0.236678 -1.28881,2.190047 -0.10542,0.179317 -0.952914,1.620056 -0.33848,0.575159 H 22.78 h 0.077 1.288293 l -0.564306,0.959115 -0.109038,0.185518 -1.245402,2.116667 -1.291394,2.195215 h 0.762744 6.185153 v 0.959114 2.94659 h 0.198437 2.079976 0.826823 V 65.73759 h 6.304525 l -0.02015,-0.03307 h 0.465605 0.381372 L 37.026164,63.895325 36.915576,63.71239 h -1.634009 c -0.31013,0 -0.616455,-0.01552 -0.91829,-0.04599 -0.301835,-0.03047 -0.598841,-0.07593 -0.890902,-0.135392 -0.292059,-0.05946 -0.579089,-0.13265 -0.859895,-0.219625 -0.280808,-0.08697 -0.555647,-0.187746 -0.823723,-0.300757 -0.268075,-0.11301 -0.529549,-0.238637 -0.783414,-0.376204 -0.253867,-0.137568 -0.500278,-0.286872 -0.738457,-0.447518 -0.238178,-0.160646 -0.467834,-0.332452 -0.688846,-0.514697 -0.221014,-0.182247 -0.433251,-0.374857 -0.635621,-0.577226 -0.202368,-0.202369 -0.394979,-0.414607 -0.577225,-0.63562 -0.182247,-0.221013 -0.354051,-0.450668 -0.514698,-0.688847 -0.104864,-0.155478 -0.196831,-0.31987 -0.291971,-0.482141 -0.01237,-0.0211 -0.02604,-0.04132 -0.03824,-0.06253 -0.03772,-0.06556 -0.08122,-0.127187 -0.117305,-0.193786 -0.137568,-0.253867 -0.263195,-0.515339 -0.376205,-0.783415 -0.11301,-0.268076 -0.213782,-0.542916 -0.300757,-0.823722 -0.08697,-0.280808 -0.160163,-0.567837 -0.219625,-0.859896 -0.05946,-0.29206 -0.104922,-0.589067 -0.135392,-0.890902 -0.03047,-0.301835 -0.04599,-0.608159 -0.04599,-0.91829 0,-0.310131 0.01552,-0.616456 0.04599,-0.91829 0.03047,-0.301835 0.07593,-0.599359 0.135392,-0.891419 0.05946,-0.292059 0.13265,-0.579088 0.219625,-0.859896 0.08698,-0.280806 0.187747,-0.555646 0.300757,-0.823722 0.11301,-0.268076 0.238637,-0.529031 0.376205,-0.782898 0.137566,-0.253867 0.286872,-0.500277 0.447517,-0.738456 0.160647,-0.238179 0.332451,-0.468351 0.514698,-0.689364 0.182246,-0.221012 0.374857,-0.432734 0.577225,-0.635103 0.20237,-0.202369 0.414607,-0.395496 0.635621,-0.577743 0.221012,-0.182245 0.450668,-0.354051 0.688846,-0.514697 0.08884,-0.05992 0.184351,-0.110142 0.275436,-0.166915 z m 8.605159,18.402494 -0.365352,0.621151 h 8.579321 v 4.822961 h 3.834392 v -4.822961 h 8.805664 L 58.510124,63.71239 Z" /><text
         xml:space="preserve"
         style="font-style:normal;font-variant:normal;font-weight:bold;font-stretch:normal;font-size:7.05556px;line-height:0;font-family:'Myanmar Text';-inkscape-font-specification:'Myanmar Text, Bold';font-variant-ligatures:normal;font-variant-caps:normal;font-variant-numeric:normal;font-variant-east-asian:normal;letter-spacing:0.529167px;fill:#35605a;fill-opacity:1;stroke:none;stroke-width:0.3;stroke-dasharray:none;stroke-opacity:1"
         x="30.022278"
         y="57.310356"
         id="text262"><tspan
           sodipodi:role="line"
           id="tspan262"
           style="font-style:normal;font-variant:normal;font-weight:bold;font-stretch:normal;font-size:7.05556px;line-height:0;font-family:'Myanmar Text';-inkscape-font-specification:'Myanmar Text, Bold';font-variant-ligatures:normal;font-variant-caps:normal;font-variant-numeric:normal;font-variant-east-asian:normal;letter-spacing:0.529167px;fill:#35605a;fill-opacity:1;stroke:none;stroke-width:0.3;stroke-opacity:1"
           x="30.022278"
           y="57.310356">LionHeart</tspan></text></g></g></svg>
